<svg xmlns="http://www.w3.org/2000/svg" xmlns:xlink="http://www.w3.org/1999/xlink" viewBox="0,0,256,256" width="48px" height="48px" fill-rule="nonzero"><g transform="translate(58.66667,58.66667) scale(0.54167,0.54167)"><g fill="none" fill-rule="nonzero" stroke="none" stroke-width="1" stroke-linecap="butt" stroke-linejoin="miter" stroke-miterlimit="10" stroke-dasharray="" stroke-dashoffset="0" font-family="none" font-weight="none" font-size="none" text-anchor="none" style="mix-blend-mode: normal"><g transform="translate(0,-106.66667) scale(5.33333,5.33333)"><circle cx="24" cy="24" r="20" fill="#216287"></circle><circle cx="24" cy="24" r="18" fill="#e87912"></circle><path d="M29.69,31.95c0,4.35 -3.09,7.98 -7.19,8.82l-0.55,0.1c-8.42,-1 -14.95,-8.17 -14.95,-16.87c0,-9.39 7.61,-17 17,-17c0.17,0 0.35,0 0.52,0.01c-3.5,1.23 -6.02,4.56 -6.02,8.49c0,1.49 0.36,2.9 1.01,4.14c0.86,1.66 2.3,2.94 3.97,3.78l1.22,0.61c1.67,0.84 3.12,2.12 3.98,3.78c0.64,1.24 1.01,2.65 1.01,4.14z" fill="#216287"></path><path d="M24,6c-9.941,0 -18,8.059 -18,18c0,8.671 6.132,15.906 14.295,17.614l0.012,0.063l0.159,-0.029c1.143,0.228 2.324,0.352 3.534,0.352c9.941,0 18,-8.059 18,-18c0,-9.941 -8.059,-18 -18,-18zM8,24c0,-7.935 5.813,-14.521 13.4,-15.769c-2.091,1.763 -3.4,4.395 -3.4,7.269c0,1.519 0.367,3.029 1.062,4.368c0.865,1.668 2.316,3.051 4.197,3.996l1.219,0.613c1.691,0.852 2.991,2.084 3.759,3.564c0.63,1.214 0.949,2.528 0.949,3.907c0,3.645 -2.35,6.857 -5.711,8.024c-8.578,-0.279 -15.475,-7.327 -15.475,-15.972zM25.905,39.876c2.599,-1.721 4.281,-4.668 4.281,-7.927c0,-1.52 -0.367,-3.029 -1.062,-4.368c-0.865,-1.668 -2.316,-3.051 -4.197,-3.996l-1.219,-0.613c-1.692,-0.852 -2.991,-2.083 -3.759,-3.564c-0.63,-1.215 -0.949,-2.529 -0.949,-3.908c0,-3.173 1.781,-6.017 4.464,-7.473c0.179,-0.006 0.355,-0.027 0.536,-0.027c8.822,0 16,7.178 16,16c0,8.177 -6.169,14.93 -14.095,15.876z" fill="#ffffff"></path><path d="M38.458,27.528c-0.776,-0.927 -2.018,-1.829 -2.809,-3.135c-0.111,-0.184 -0.053,-0.407 0.135,-0.507c1.015,-0.544 1.194,-0.445 2.216,-0.886c-1,-1 -2.037,-1.36 -3.681,-1.774c-0.322,-0.067 -0.507,-0.337 -0.561,-0.634c-0.088,-0.323 -0.275,-0.87 -0.471,-1.307c-1.421,-2.871 -3.192,-6.625 -6.786,-6.907c-0.237,-0.003 -0.463,-0.099 -0.62,-0.257c-0.453,-0.432 -1.087,-0.967 -1.67,-1.055c-0.115,0.011 -0.057,-0.028 -0.146,0.054c-0.233,0.273 -0.186,0.283 -0.026,0.63c0.216,0.369 0.628,0.791 1.033,1.208c0.411,0.531 0.126,1.308 0.396,1.904c0.111,0.423 0.344,0.923 0.603,1.229c0.125,0.161 0.163,0.365 0.124,0.55c-0.288,1.377 -0.491,2.862 -0.212,4.241c0.006,0.147 0.15,0.202 0.256,0.149c0.033,-0.026 0.032,-0.008 0.16,-0.233c0.157,-0.35 1.276,-2.491 1.601,-1.798c0.473,1.538 1.13,4.53 2.522,5.455c0.059,0.025 0.013,0.122 -0.045,0.089c-1.454,-0.751 -2.631,-2.682 -2.978,-3.984c-0.27,0.023 -0.512,0.242 -0.648,0.493c-0.205,0.719 -1.26,0.756 -1.449,-0.013c-0.076,-0.298 -0.138,-0.6 -0.167,-0.905c-0.111,-1.11 -0.041,-2.753 0.211,-3.582c-0.704,-0.76 -1.098,-2.227 -1.005,-2.995c-0.413,-0.418 -0.847,-0.829 -1.17,-1.344c-0.608,-0.774 -0.076,-2.132 0.967,-2.083c0.924,0.077 1.672,0.707 2.33,1.301c0.729,-0.065 2.173,0.444 2.982,0.991c1.834,1.191 2.799,3.236 3.847,5.078c0.409,0.836 1.142,2.25 1.123,2.924c1.866,0.578 3.975,1.277 5.039,3.046c0.019,0.035 0.001,0.08 -0.038,0.091l-2.9,0.91l1.921,3c0.033,0.05 -0.047,0.112 -0.084,0.056z" fill="#ffffff"></path><path d="M27.046,13.688l0.833,1.189c0,0.001 0.951,-1.347 -0.833,-1.189z" fill="#ffffff"></path><g fill="#ffffff"><path d="M9.762,20.071c0.776,0.927 2.018,1.829 2.809,3.135c0.111,0.184 0.053,0.407 -0.135,0.507c-1.015,0.543 -1.193,0.444 -2.215,0.886c1,1 2.037,1.36 3.681,1.774c0.322,0.067 0.507,0.337 0.561,0.634c0.088,0.323 0.275,0.87 0.471,1.307c1.421,2.871 3.192,6.625 6.786,6.907c0.237,0.003 0.463,0.099 0.62,0.257c0.453,0.432 1.087,0.967 1.67,1.055c0.115,-0.011 0.057,0.028 0.146,-0.054c0.233,-0.273 0.186,-0.283 0.026,-0.63c-0.216,-0.369 -0.628,-0.791 -1.033,-1.208c-0.411,-0.531 -0.126,-1.308 -0.396,-1.904c-0.111,-0.423 -0.344,-0.923 -0.603,-1.229c-0.125,-0.161 -0.163,-0.365 -0.124,-0.55c0.288,-1.377 0.491,-2.862 0.212,-4.241c-0.006,-0.147 -0.15,-0.202 -0.256,-0.149c-0.033,0.026 -0.032,0.008 -0.16,0.233c-0.158,0.348 -1.277,2.49 -1.602,1.796c-0.473,-1.538 -1.13,-4.53 -2.522,-5.455c-0.059,-0.025 -0.013,-0.122 0.045,-0.089c1.454,0.751 2.631,2.682 2.978,3.984c0.27,-0.023 0.512,-0.242 0.648,-0.493c0.205,-0.719 1.26,-0.756 1.449,0.013c0.076,0.298 0.138,0.6 0.167,0.905c0.111,1.11 0.041,2.753 -0.211,3.582c0.704,0.76 1.098,2.227 1.005,2.995c0.413,0.418 0.847,0.829 1.17,1.344c0.608,0.774 0.076,2.132 -0.967,2.083c-0.924,-0.077 -1.672,-0.707 -2.33,-1.301c-0.729,0.065 -2.173,-0.444 -2.982,-0.991c-1.834,-1.191 -2.799,-3.236 -3.847,-5.078c-0.409,-0.836 -1.142,-2.25 -1.123,-2.924c-1.866,-0.578 -3.975,-1.277 -5.039,-3.046c-0.019,-0.035 -0.001,-0.08 0.038,-0.091l2.9,-0.91l-1.921,-3c-0.033,-0.048 0.047,-0.109 0.084,-0.054z"></path><path d="M21.174,33.911l-0.833,-1.189c0.001,0 -0.951,1.348 0.833,1.189z"></path></g></g></g><g fill="#5c1d56" fill-rule="nonzero" stroke="none" stroke-width="1" stroke-linecap="butt" stroke-linejoin="miter" stroke-miterlimit="10" stroke-dasharray="" stroke-dashoffset="0" font-family="none" font-weight="none" font-size="none" text-anchor="none" style="mix-blend-mode: normal"><g id="text"><path d="M38.34538,261.24077v0c0,-5.02 -1.77,-8.87 -5.31,-11.55c-3.54667,-2.68667 -9.92333,-5.52 -19.13,-8.5c-9.20667,-2.98667 -16.49667,-5.92333 -21.87,-8.81v0c-14.64,-7.91333 -21.96,-18.57 -21.96,-31.97v0c0,-6.96667 1.96333,-13.18 5.89,-18.64c3.92667,-5.46 9.56333,-9.72333 16.91,-12.79c7.35333,-3.06667 15.60333,-4.6 24.75,-4.6v0c9.20667,0 17.41333,1.66667 24.62,5c7.2,3.33333 12.79,8.04 16.77,14.12c3.98667,6.08 5.98,12.98667 5.98,20.72v0h-26.56c0,-5.9 -1.86,-10.49 -5.58,-13.77c-3.72,-3.27333 -8.94333,-4.91 -15.67,-4.91v0c-6.49333,0 -11.54,1.37 -15.14,4.11c-3.6,2.74667 -5.4,6.36333 -5.4,10.85v0c0,4.19333 2.11,7.70667 6.33,10.54c4.22,2.83333 10.43,5.49 18.63,7.97v0c15.11333,4.54 26.12333,10.17667 33.03,16.91c6.90667,6.72667 10.36,15.10667 10.36,25.14v0c0,11.16 -4.22,19.91333 -12.66,26.26c-8.44,6.34 -19.80333,9.51 -34.09,9.51v0c-9.91333,0 -18.94333,-1.81333 -27.09,-5.44c-8.14667,-3.63333 -14.36,-8.60667 -18.64,-14.92c-4.28,-6.31333 -6.42,-13.63333 -6.42,-21.96v0h26.65c0,14.22667 8.5,21.34 25.5,21.34v0c6.31333,0 11.24333,-1.28333 14.79,-3.85c3.54,-2.56667 5.31,-6.15333 5.31,-10.76zM188.68538,227.77077v5.76c0,12.04 -1.94667,22.5 -5.84,31.38c-3.89333,8.88667 -9.29333,16.01667 -16.2,21.39v0l21.42,16.82l-16.91,14.96l-27.45,-22.04c-3.12667,0.52667 -6.37333,0.79 -9.74,0.79v0c-10.68,0 -20.21,-2.56667 -28.59,-7.7c-8.38667,-5.13333 -14.88,-12.46667 -19.48,-22c-4.60667,-9.53333 -6.94,-20.49667 -7,-32.89v0v-6.38c0,-12.69333 2.28667,-23.86333 6.86,-33.51c4.58,-9.65333 11.04333,-17.06333 19.39,-22.23c8.35333,-5.16 17.90333,-7.74 28.65,-7.74c10.74,0 20.28667,2.58 28.64,7.74c8.35333,5.16667 14.81667,12.57667 19.39,22.23c4.57333,9.64667 6.86,20.78667 6.86,33.42zM161.77538,233.97077v-6.29c0,-13.51333 -2.42,-23.78333 -7.26,-30.81c-4.84,-7.02667 -11.74667,-10.54 -20.72,-10.54v0c-8.91333,0 -15.79,3.47 -20.63,10.41c-4.84,6.93333 -7.29,17.1 -7.35,30.5v0v6.29c0,13.16 2.42,23.37 7.26,30.63c4.84,7.26 11.80333,10.89 20.89,10.89v0c8.91333,0 15.76333,-3.49667 20.55,-10.49c4.78,-6.99333 7.2,-17.19 7.26,-30.59zM234.72538,166.15077v107.57h56.41v21.34h-82.97v-128.91z"></path></g></g></g></svg>